<svg version="1.1" id="Layer_1" xmlns="http://www.w3.org/2000/svg" xmlns:xlink="http://www.w3.org/1999/xlink" x="0px" y="0px"
	 width="100%" viewBox="0 0 1024 1024" enable-background="new 0 0 1024 1024" xml:space="preserve">
<path fill="#fe6d04" opacity="1.000000" stroke="none" 
	d="
M656.856750,225.049591 
	C659.771545,223.810532 660.332520,226.016205 660.992065,227.571655 
	C675.318176,261.355499 684.242798,296.143524 677.585022,333.076538 
	C673.538086,355.526276 663.890442,375.674774 649.366638,393.531738 
	C626.004395,422.255615 594.764954,438.653473 560.944946,451.218231 
	C558.610901,452.085388 556.302124,453.020538 552.776733,454.393219 
	C558.372314,456.041962 563.054260,456.450226 567.666199,456.533417 
	C591.550171,456.964203 614.784790,453.618225 636.873779,444.014038 
	C641.467468,442.016754 642.849731,442.630096 643.080444,447.318665 
	C645.107910,488.527496 638.183228,527.410583 612.006042,560.806091 
	C595.625549,581.703491 573.676697,594.484314 548.483887,602.029358 
	C525.429260,608.934082 501.501251,611.199402 477.930420,615.387268 
	C456.938049,619.116943 437.278076,626.507568 421.544708,641.395630 
	C390.326080,670.936951 391.494812,719.412781 423.535278,748.322632 
	C430.281281,754.409424 437.572205,759.478333 445.772095,763.388489 
	C449.563782,765.196594 451.403534,764.640137 452.651489,760.452515 
	C461.767059,729.865540 459.995850,699.992798 447.260742,670.729919 
	C444.860992,665.215759 442.110565,659.895996 439.001190,654.769897 
	C437.208740,651.814941 437.877960,649.805786 440.718933,648.192200 
	C451.926788,641.826294 463.536865,636.513733 476.298065,633.993652 
	C479.437439,633.373596 481.039459,634.738953 482.169281,637.249878 
	C491.213837,657.350586 498.816559,677.873535 502.285095,699.814148 
	C507.442139,732.435913 500.550507,763.409058 490.079651,793.927795 
	C487.326477,801.952454 483.932953,809.757507 480.828613,817.661438 
	C479.789093,820.308228 478.216400,821.604492 475.061615,820.852966 
	C448.600067,814.549683 423.412231,805.492065 401.406769,788.822815 
	C376.289032,769.795837 360.830292,744.786133 355.899017,713.881104 
	C349.010223,670.707703 361.832550,633.943298 394.566589,604.622253 
	C398.651276,600.963440 396.918945,598.439758 394.673859,595.396423 
	C384.972198,582.244995 375.752289,568.775269 367.779083,554.493225 
	C352.406342,526.956543 343.170471,497.680634 343.821198,465.873230 
	C344.622131,426.723328 358.346741,392.712982 385.720886,364.527802 
	C408.000122,341.588470 435.177124,326.443268 464.993958,315.654083 
	C491.026276,306.234344 518.116821,300.518219 544.668518,292.915863 
	C573.494324,284.662415 601.119019,273.764557 625.801270,256.380798 
	C637.895874,247.862564 648.007324,237.298813 656.856750,225.049591 
M579.202759,393.663269 
	C588.155884,388.781555 596.561035,383.143616 604.039734,376.149536 
	C622.826050,358.580566 632.957458,337.028015 633.976379,311.294800 
	C634.189392,305.915894 632.785706,305.077362 628.242188,307.718689 
	C611.025208,317.727661 592.689636,325.108368 573.840393,331.381897 
	C547.914673,340.010651 521.125732,345.514038 494.999481,353.409515 
	C473.504639,359.905304 453.002594,368.440125 434.780609,381.857086 
	C418.234406,394.040161 404.792023,408.837585 397.068359,428.093353 
	C384.758270,458.783417 387.604675,489.046295 400.661377,518.787842 
	C409.303925,538.474487 421.915558,555.642334 434.795044,572.683777 
	C438.322418,577.351013 441.677795,578.584290 447.034698,576.654968 
	C464.997955,570.185486 483.874603,567.867981 502.609070,565.067078 
	C516.936707,562.924988 531.189026,560.702026 544.782837,555.400818 
	C566.819946,546.806946 581.370605,531.083008 589.118286,508.925690 
	C591.318054,502.634766 590.098938,501.372284 583.219727,501.768341 
	C573.894287,502.305206 564.583801,502.042664 555.251953,501.553314 
	C537.262329,500.609955 519.237549,500.288666 501.537994,504.405670 
	C488.562592,507.423828 476.737396,512.988647 466.542694,521.795776 
	C461.697662,525.981323 460.061920,525.261353 458.912506,519.155334 
	C457.357300,510.893646 457.566681,502.552002 457.738312,494.237549 
	C458.249146,469.491852 468.534943,449.726532 488.253387,434.724548 
	C498.720428,426.761108 510.343475,421.181061 522.629456,416.765015 
	C541.582886,409.952362 560.747620,403.650482 579.202759,393.663269 
z"/>
</svg>